<svg xmlns="http://www.w3.org/2000/svg" viewBox="0 0 24 24">
    <path fill="#5ba473"
          d="M3.008 3.02L1.762 4.265l1.812 1.812L4.875 4.77l1.313-1.304-.856-.852c-.469-.469-.895-.851-.957-.851-.066 0-.672.562-1.367 1.257zm2.508 2.398l-1.301 1.3.883.887.875.875 2.613-2.613-.883-.887-.875-.875zM7.894 7.84L6.614 9.12l1.812 1.812 1.25-1.25c.691-.69 1.258-1.3 1.258-1.363 0-.105-1.61-1.762-1.707-1.762-.032 0-.63.579-1.332 1.282zm4.692.308c-.172.11-1.258 1.141-2.399 2.293l-2.082 2.094v1.277l1.047 1.036 1.036 1.047h1.277l2.23-2.243c1.43-1.43 2.262-2.343 2.305-2.539.16-.636-.031-1.035-.937-1.972-1.165-1.204-1.762-1.438-2.477-.993zm1.73 6.176l-1.25 1.25 1.813 1.813 1.3-1.313 1.313-1.3-.851-.852c-.47-.473-.899-.856-.961-.856s-.672.567-1.364 1.258zm-8.375.215c-.308.117-.629.266-.695.332-.094.094.356.594 1.824 2.066 1.867 1.856 1.965 1.934 2.114 1.731.468-.629.566-1.898.191-2.648-.66-1.309-2.133-1.942-3.434-1.48zm10.88 2.188l-1.301 1.3.886.883.875.875 1.313-1.308 1.3-1.305-.886-.883-.875-.875zm2.378 2.421l-1.277 1.278 1.813 1.812 1.246-1.246c.695-.695 1.257-1.3 1.257-1.367 0-.106-1.609-1.758-1.703-1.758-.035 0-.633.574-1.336 1.281z"/>
</svg>
